<svg width="82" height="23" viewBox="0 0 82 23" fill="none" xmlns="http://www.w3.org/2000/svg">
<path d="M3.70215 22H0.303711C0.225586 22 0.186523 21.9512 0.186523 21.8535L0.245117 1.24316C0.245117 1.16504 0.28418 1.12598 0.362305 1.12598H6.42676C7.51074 1.12598 8.50684 1.38965 9.41504 1.91699C10.3232 2.44434 11.0459 3.15234 11.583 4.04102C12.1299 4.92969 12.4033 5.93555 12.4033 7.05859C12.4033 7.79102 12.291 8.45508 12.0664 9.05078C11.8418 9.64648 11.5781 10.1494 11.2754 10.5596C10.9824 10.9697 10.7139 11.2725 10.4697 11.4678C11.5537 12.6689 12.0957 14.0801 12.0957 15.7012L12.125 21.8535C12.125 21.9512 12.0762 22 11.9785 22H8.58008C8.50195 22 8.46289 21.9707 8.46289 21.9121V15.7012C8.46289 14.9785 8.20898 14.3535 7.70117 13.8262C7.19336 13.2988 6.56836 13.0352 5.82617 13.0352H3.84863L3.81934 21.8535C3.81934 21.9512 3.78027 22 3.70215 22ZM6.42676 4.71484H3.84863V9.43164H6.42676C7.04199 9.43164 7.58887 9.20215 8.06738 8.74316C8.55566 8.28418 8.7998 7.72266 8.7998 7.05859C8.7998 6.42383 8.56543 5.87695 8.09668 5.41797C7.62793 4.94922 7.07129 4.71484 6.42676 4.71484ZM24.4736 22H14.7764C14.6982 22 14.6592 21.9512 14.6592 21.8535L14.6885 1.24316C14.6885 1.16504 14.7275 1.12598 14.8057 1.12598H24.4443C24.5225 1.12598 24.5615 1.1748 24.5615 1.27246V4.62695C24.5615 4.70508 24.5225 4.74414 24.4443 4.74414H18.292V9.43164H24.4443C24.5225 9.43164 24.5615 9.4707 24.5615 9.54883L24.5908 12.9473C24.5908 13.0254 24.5518 13.0645 24.4736 13.0645H18.292V18.3086H24.4736C24.5518 18.3086 24.5908 18.3574 24.5908 18.4551V21.8828C24.5908 21.9609 24.5518 22 24.4736 22ZM32.75 22H27.374C27.2959 22 27.2568 21.9512 27.2568 21.8535L27.3154 1.24316C27.3154 1.16504 27.3545 1.12598 27.4326 1.12598H33.2041C34.3271 1.12598 35.3477 1.39941 36.2656 1.94629C37.1641 2.49316 37.8721 3.2207 38.3896 4.12891C38.9072 5.02734 39.166 6.00391 39.166 7.05859C39.166 7.91797 38.9707 8.71875 38.5801 9.46094C38.1895 10.2031 37.7256 10.8037 37.1885 11.2627C37.7646 11.8389 38.2139 12.5078 38.5361 13.2695C38.8584 14.0312 39.0195 14.832 39.0195 15.6719C39.0195 16.834 38.7412 17.8936 38.1846 18.8506C37.6182 19.8076 36.8613 20.5742 35.9141 21.1504C34.9668 21.7168 33.9121 22 32.75 22ZM33.2041 4.68555H30.9189V9.40234H33.2041C33.8975 9.40234 34.459 9.1582 34.8887 8.66992C35.3184 8.17188 35.5332 7.63477 35.5332 7.05859C35.5332 6.42383 35.3037 5.87207 34.8447 5.40332C34.3857 4.9248 33.8389 4.68555 33.2041 4.68555ZM32.75 13.0352H30.9189L30.8896 18.3379H32.75C33.4727 18.3379 34.0928 18.0742 34.6104 17.5469C35.1279 17.0195 35.3867 16.3945 35.3867 15.6719C35.3867 14.9492 35.1279 14.3291 34.6104 13.8115C34.0928 13.2939 33.4727 13.0352 32.75 13.0352ZM72.1104 22H68.7119C68.6338 22 68.5947 21.9512 68.5947 21.8535L68.6533 1.27246C68.6533 1.1748 68.6924 1.12598 68.7705 1.12598H72.1396C72.2178 1.12598 72.2568 1.1748 72.2568 1.27246V8.37695L76.959 1.24316C77.0371 1.16504 77.1104 1.12598 77.1787 1.12598H80.6211C80.709 1.12598 80.7285 1.16504 80.6797 1.24316L75.4941 9.51953L81.3096 21.8828C81.3584 21.9609 81.3096 22 81.1631 22H77.501C77.4033 22 77.3447 21.9609 77.3252 21.8828L73.2676 13.0645L72.2275 14.7051V21.8535C72.2275 21.9512 72.1885 22 72.1104 22Z" fill="white"/>
<path d="M46.7246 22.293C45.6602 22.293 44.6787 22.0195 43.7803 21.4727C42.8916 20.9258 42.1738 20.1982 41.627 19.29C41.0898 18.3721 40.8213 17.3662 40.8213 16.2725L40.8506 6.76562C40.8506 5.65234 41.1191 4.65137 41.6562 3.7627C42.1836 2.86426 42.8965 2.14648 43.7949 1.60938C44.6934 1.0625 45.6699 0.789062 46.7246 0.789062C47.8184 0.789062 48.7998 1.05762 49.6689 1.59473C50.5479 2.13184 51.251 2.85449 51.7783 3.7627C52.3154 4.66113 52.584 5.66211 52.584 6.76562L52.6133 16.2725C52.6133 17.3662 52.3496 18.3672 51.8223 19.2754C51.2852 20.1934 50.5723 20.9258 49.6836 21.4727C48.7949 22.0195 47.8086 22.293 46.7246 22.293ZM46.7246 18.6748C47.3301 18.6748 47.8574 18.4307 48.3066 17.9424C48.7559 17.4443 48.9805 16.8877 48.9805 16.2725L48.9512 6.76562C48.9512 6.10156 48.7412 5.54004 48.3213 5.08105C47.9014 4.62207 47.3691 4.39258 46.7246 4.39258C46.1094 4.39258 45.582 4.61719 45.1426 5.06641C44.7031 5.51562 44.4834 6.08203 44.4834 6.76562V16.2725C44.4834 16.9268 44.7031 17.4932 45.1426 17.9717C45.582 18.4404 46.1094 18.6748 46.7246 18.6748ZM60.4355 22.293C59.3711 22.293 58.3896 22.0195 57.4912 21.4727C56.6025 20.9258 55.8848 20.1982 55.3379 19.29C54.8008 18.3721 54.5322 17.3662 54.5322 16.2725L54.5615 6.76562C54.5615 5.65234 54.8301 4.65137 55.3672 3.7627C55.8945 2.86426 56.6074 2.14648 57.5059 1.60938C58.4043 1.0625 59.3809 0.789062 60.4355 0.789062C61.5293 0.789062 62.5107 1.05762 63.3799 1.59473C64.2588 2.13184 64.9619 2.85449 65.4893 3.7627C66.0264 4.66113 66.2949 5.66211 66.2949 6.76562L66.3242 16.2725C66.3242 17.3662 66.0605 18.3672 65.5332 19.2754C64.9961 20.1934 64.2832 20.9258 63.3945 21.4727C62.5059 22.0195 61.5195 22.293 60.4355 22.293ZM60.4355 18.6748C61.041 18.6748 61.5684 18.4307 62.0176 17.9424C62.4668 17.4443 62.6914 16.8877 62.6914 16.2725L62.6621 6.76562C62.6621 6.10156 62.4521 5.54004 62.0322 5.08105C61.6123 4.62207 61.0801 4.39258 60.4355 4.39258C59.8203 4.39258 59.293 4.61719 58.8535 5.06641C58.4141 5.51562 58.1943 6.08203 58.1943 6.76562V16.2725C58.1943 16.9268 58.4141 17.4932 58.8535 17.9717C59.293 18.4404 59.8203 18.6748 60.4355 18.6748Z" fill="#FFC107"/>
</svg>
