<svg width="80" height="80" viewBox="0 0 80 80" fill="none" xmlns="http://www.w3.org/2000/svg">
<path fill-rule="evenodd" clip-rule="evenodd" d="M40 80C62.0914 80 80 62.0914 80 40C80 17.9086 62.0914 0 40 0C17.9086 0 0 17.9086 0 40C0 62.0914 17.9086 80 40 80ZM42.7091 18.98C46.0117 17.4954 49.8063 17.5714 53.0469 19.1869C57.8414 21.5772 57.7415 28.4522 52.8795 30.7021L42.0928 35.6935C41.0629 36.1701 39.8713 36.1482 38.8596 35.6341L28.7192 30.4812C27.665 29.9455 26.3763 30.3658 25.8406 31.4199C25.3049 32.4741 25.7252 33.7628 26.7793 34.2985L38.5219 40.2657C39.6916 40.8601 41.0693 40.8854 42.26 40.3344L54.6778 34.5881C62.7985 30.8303 62.9655 19.3471 54.9574 15.3548C50.5676 13.1663 45.4274 13.0634 40.9535 15.0744L18.8899 24.9921C17.3524 25.6832 16.3635 27.212 16.3635 28.8977V35.942C16.3635 37.5657 17.2819 39.0497 18.735 39.7742L38.5076 49.6316C39.7106 50.2313 41.1255 50.2313 42.3285 49.6316L58.2371 41.7005C59.1352 41.2528 60.1906 41.906 60.1906 42.9095C60.1906 43.4217 59.9009 43.8899 59.4425 44.1184L42.0705 52.779C41.0299 53.2978 39.8061 53.2978 38.7656 52.779L22.5559 44.6979C19.7091 43.2786 16.3635 45.3491 16.3635 48.53V52.3292C16.3635 53.9529 17.2819 55.4369 18.735 56.1613L38.5148 66.0223C39.7097 66.618 41.114 66.6223 42.3124 66.0339L57.4544 58.5998C58.5158 58.0787 58.9538 56.7958 58.4327 55.7344C57.9116 54.673 56.6287 54.235 55.5673 54.7561L42.0702 61.3826C41.0336 61.8916 39.8189 61.8879 38.7854 61.3727L21.587 52.7986C21.0101 52.5109 20.6455 51.9218 20.6455 51.2771C20.6455 50.0142 21.9737 49.1922 23.104 49.7557L38.5076 57.435C39.7106 58.0347 41.1255 58.0347 42.3285 57.435L62.1011 47.5776C63.5542 46.8531 64.4726 45.3691 64.4726 43.7454V40.7266C64.4726 37.5457 61.1269 35.4752 58.2802 36.8945L42.0705 44.9756C41.0299 45.4944 39.8061 45.4944 38.7656 44.9756L22.6967 36.9647C21.4398 36.338 20.6455 35.0544 20.6455 33.65V31.2935C20.6455 29.8355 21.5009 28.5132 22.8307 27.9154L42.7091 18.98Z" fill="#FFC107"/>
</svg>
